<svg width="434" height="429" viewBox="0 0 434 429" fill="none" xmlns="http://www.w3.org/2000/svg">
<path d="M404.866 129C405.367 132.972 415.209 135.091 418.053 136.583C421.369 138.323 425.841 153.205 426.763 157.316C427.903 162.404 428.46 176.789 423.1 179.824C411.786 186.232 422.671 193.737 426.844 199.832C438.078 216.239 429.029 232.298 418.053 245.896C414.945 249.747 420.983 257.845 420.983 262.918C420.983 273.433 413.442 281.592 409.262 290.912C405.77 298.699 404.027 303.603 396.157 309.064C387.802 314.86 387.284 315.626 387.284 325.36C387.284 334.655 390.649 349.723 378.493 349.723C367.629 349.723 364.133 359.438 356.597 366.907C346.921 376.497 339.037 389.849 323.956 390.383C318.077 390.591 313.114 393.649 307.513 394.659C303.544 395.374 298.899 394.739 294.896 394.739C286.833 394.739 279.778 398.641 273 402" stroke="#FD9F28" stroke-width="4" stroke-linecap="round"/>
<path d="M274 401.746C269.726 402.53 266.298 406.102 263.511 408.913C257.083 415.397 251.467 419.828 242.534 422.905C238.688 424.23 234.096 427 230.015 427C225.83 427 221.644 427 217.459 427C213.166 427 209.024 425.857 204.827 425.104C199.997 424.238 194.469 424.952 189.564 424.952C185.148 424.952 182.519 422.713 178.888 420.516C170.396 415.376 161.218 421.866 152.873 423.549C146.7 424.795 144.057 423.981 140.354 418.81C137.797 415.239 134.911 409.179 131.219 406.903C123.951 402.423 115.014 398.419 106.858 396.134C103.612 395.225 102.159 391.648 99.565 389.764C97.5355 388.29 98.0612 386.389 98.0612 384" stroke="#FD9F28" stroke-width="4" stroke-linecap="round"/>
<path d="M98 383C98 368.905 82.0118 368.836 72.7788 363.661C68.6603 361.352 66.4207 358.349 64.3717 353.671C61.8061 347.813 55.5245 345.626 50.2478 342.964C43.4033 339.511 37.3735 337.999 36.8338 329.016C36.6662 326.225 37.3504 321.206 35.0777 318.913C33.3635 317.183 32.7611 316.668 32.7611 313.786C32.7611 310.685 34.0699 307.369 33.2842 304.286C32.6445 301.776 29.5671 301.063 27.9036 299.385C25.2811 296.739 22 291.749 22 288" stroke="#FD9F28" stroke-width="4" stroke-linecap="round"/>
<path d="M21.8765 287C21.8765 285.182 22.2051 283.054 21.7902 281.292C21.3285 279.331 19.1488 275.115 17.5801 273.653C14.4141 270.703 10.3692 268.203 8.36119 264.212C5.6197 258.762 4.81389 252.438 6.54762 246.53C8.03279 241.469 9.05207 237.546 9.05207 232.368C9.05207 229.999 9.33903 227.387 8.57709 225.115C7.75167 222.654 6.99196 220.528 6.69875 217.905C6.53451 216.436 4.79573 215.186 4 214" stroke="#FD9F28" stroke-width="4" stroke-linecap="round"/>
<path d="M3.65912 214C3.65912 211.379 3.08914 208.837 2.24418 206.401C1.55529 204.414 2.48216 202.567 3.07518 200.701C4.10132 197.473 5.34995 194.337 6.26441 191.073C6.86471 188.929 7.10503 186.479 7.27508 184.272C7.49014 181.481 8.40842 179.072 9.49856 176.5C10.1664 174.924 10.7652 172.588 10.5092 170.865C10.2916 169.401 8.9556 168.267 8.28576 166.979C7.5673 165.598 7.38528 163.876 7.29754 162.316C7.21201 160.795 6.489 159.41 6.489 157.869C6.489 154.618 7.17618 151.891 10.0376 149.881C11.2277 149.045 12.3251 147.244 12.9573 145.995C13.4901 144.942 14.8465 143.252 14.9787 142.109C15.1406 140.708 15.2673 139 17 139" stroke="#FD9F28" stroke-width="4" stroke-linecap="round"/>
<path d="M17 139C30.8522 137.263 24.6403 99.6489 36.618 99.6489C54.2226 99.6489 67.5394 77.7794 69.3146 61.7553C69.7932 57.4355 77.1595 57.5594 80.2942 55.8446C84.288 53.6598 88.0547 45.1903 91.8389 44.3469C96.2103 43.3727 104.344 41.8908 107.097 38.1123C112.137 31.1963 115.839 29.6915 124.213 29.6915C138.799 29.6915 145.061 15.117 159.412 15.117C166.384 15.117 172.103 13.2167 177.98 9.28723C183.07 5.88437 186.69 6.54355 192.835 6.37234C198.705 6.20881 203.672 2 209.547 2C215.575 2 222.09 6.01734 228.357 7.10106C235.052 8.25861 240.466 7.9745 246.603 5.23877C250.855 3.34335 256.018 6.40297 260.005 7.50591C268.437 9.83891 278.082 6.01994 286.566 7.91076C291.546 9.02075 294.366 14.2827 300.371 15.4409C306.556 16.6339 315.306 16.4829 319.262 20.9468C322.161 24.218 323.413 28.5308 326.528 31.8777C330.804 36.4721 333.005 34.3181 334.521 40.7033C337.13 51.694 349.424 56.8324 359.951 51.5532C375.054 43.9799 369.052 60.3124 378.116 67.5851C381.175 70.0397 379.825 73.3977 381.749 76.6537C383.962 80.3998 386.632 84.2713 388.692 87.9894C390.802 91.7977 393.114 93.0914 396.927 95.2766C399.42 96.7054 396.856 103.861 397.896 106.207C399.764 110.424 405 111.931 405 117.138C405 121.025 405 124.911 405 128.798" stroke="#FD9F28" stroke-width="4" stroke-linecap="round"/>
</svg>
