<svg width="1512" height="783" viewBox="0 0 1512 783" fill="none" xmlns="http://www.w3.org/2000/svg">
<path d="M-43.0002 243.869C-14.1669 202.882 25.4873 165.981 58.6656 127.217C77.108 105.67 94.3492 82.9485 116.998 64.04C123.376 58.7156 126.23 57.3698 132.554 64.4912C147.58 81.4129 157.314 99.6058 184.498 105.331C223.757 113.598 255.178 94.4284 275.053 68.1013C286.594 52.8133 296.478 36.4899 300.608 18.8008C301.814 13.6341 301.934 5.90167 305.052 1.08865C306.228 -0.725179 337.289 25.8701 341.997 28.1645C373.069 43.3083 398.525 34.5731 426.44 19.9289C444.469 10.471 457.167 7.14323 472.829 20.1545C506.792 48.3691 548.744 75.0855 595.189 87.9569C632.167 98.2048 667.523 91.2658 699.494 74.0806C735.871 54.526 763.07 25.5452 807.548 17.3341C825.434 14.0323 844.459 14.6142 861.298 20.8314C873.369 25.2884 882.212 33.832 894.492 37.8666C919.62 46.1229 936.599 26.3969 953.936 14.4009C968.095 4.60389 977.795 -0.123119 986.991 14.4009C1000.57 35.8509 1013.97 50.1765 1042.27 59.9786C1066.63 68.4164 1087.59 72.7619 1113.8 69.9064C1169.62 63.8237 1223.79 50.5025 1278.79 41.0255C1279.19 40.9575 1301.21 36.6564 1298.38 41.2511C1296.5 44.3018 1292.92 46.2657 1292.13 49.8251C1289.46 61.7355 1308.69 59.076 1318.1 59.076C1339.53 59.076 1360.93 58.8308 1382.27 57.0454C1393.02 56.1454 1411.81 50.8687 1422.27 54.6762C1432.09 58.2548 1423.2 74.8158 1420.88 79.8342C1414.71 93.153 1408.34 105.524 1406.02 119.771C1403.01 138.218 1401.57 159.028 1428.79 163.656C1450.32 167.316 1468.85 164.672 1490.04 164.672C1498.53 164.672 1500.83 185.415 1504.49 190.619C1516.45 207.622 1541.28 207.911 1562.54 206.865C1582.14 205.9 1621.3 199.453 1611.43 225.592C1607.6 235.72 1598.05 242.795 1590.87 251.314C1579.04 265.369 1575.58 280.707 1573.38 297.343C1572.16 306.545 1572.11 314.742 1574.49 323.742C1577.35 334.601 1566.04 348.791 1560.88 358.151C1536.97 401.464 1505.87 444.236 1487.4 489.243C1479.96 507.374 1491.71 503.503 1509.35 500.863C1515.03 500.012 1526.95 497.799 1532.26 500.638C1539.88 504.704 1527.79 524.533 1525.04 528.842C1513.55 546.853 1499.13 566.098 1499.49 587.055C1499.67 597.791 1511.34 606.558 1505.32 617.515C1497.19 632.316 1473.12 643.393 1457.68 652.037C1432.9 665.91 1406.56 677.569 1381.15 690.62C1365.05 698.896 1344.73 718.203 1325.32 720.629C1289.31 725.13 1252.11 708.31 1215.88 707.316C1165.26 705.928 1124.94 717.365 1083.1 738.905C1066.41 747.499 1060.92 745.048 1041.16 738.002C964.07 710.521 887.897 693.177 806.159 720.403C781.088 728.754 756.869 740.29 730.604 746.125C721.269 748.199 711.422 748.61 701.994 750.525C679.238 755.146 657.38 755.671 635.189 762.935C610.844 770.903 582.73 783.309 555.606 781.888C542.65 781.209 536.025 772.148 523.939 770.268C503.546 767.096 479.754 774.299 460.051 768.463C431.689 760.061 430.626 730.117 417.829 712.055C405.806 695.085 395.246 686.879 370.885 689.943C344.101 693.312 318.719 696.691 291.441 697.614C260.435 698.664 219.044 704.307 189.359 694.23C170.09 687.689 160.683 669.571 138.248 668.395C119.43 667.409 105.47 670.878 89.6376 679.338C81.3061 683.79 60.075 696.199 49.499 689.04C42.0473 683.996 39.7644 672.754 36.4436 665.8C31.1971 654.815 26.0722 642.325 16.5826 633.196C1.51751 618.705 -23.0387 612.129 -39.2502 598.111C-62.2876 578.19 -58.961 548.49 -60.5001 522.862C-61.562 505.179 -68 488.148 -68 470.516C-68 451.145 -49.2797 437.373 -33.0003 425.051C-19.177 414.588 -1.28159 399.471 -6.05608 382.407C-7.30466 377.944 -13.4941 372.319 -16.056 367.74C-25.2866 351.245 -24.7641 332.982 -31.7503 315.958C-36.7829 303.694 -45.5002 289.247 -45.5002 276.247C-45.5002 269.854 -45.5002 263.461 -45.5002 257.068C-45.5002 252.386 -39.7269 250.107 -38.0003 245.899" stroke="#FD9F28" stroke-width="2" stroke-linecap="round"/>
</svg>
